<svg id="Layer_1" height="512" viewBox="0 0 128 128" width="512" xmlns="http://www.w3.org/2000/svg" data-name="Layer 1">
    <path
        fill="#ffffff" d="m111 36.576h-1.3v-3.369a1.75 1.75 0 0 0 -1.75-1.75h-3.017a1.749 1.749 0 0 0 -1.619 1.085l-1.656 4.033h-34.073a1.744 1.744 0 0 0 -1.732-1.575h-18.895a14.466 14.466 0 0 0 -12.569 7.332 8.885 8.885 0 0 0 -1.016-1.372 9.688 9.688 0 0 0 -7.537-2.979 1.75 1.75 0 0 0 0 3.5 6.369 6.369 0 0 1 4.93 1.814c1.741 1.909 1.779 4.859 1.748 5.74 0 .051-.007.1-.008.153-.168.556-1.466 4.149-7.45 6.8a1.751 1.751 0 0 0 -1 1.2l-8.756 37.204a1.75 1.75 0 0 0 1.7 2.151h24.873a1.75 1.75 0 0 0 1.7-1.353l4.24-18.2 23.432-3.023a1.75 1.75 0 0 0 1.468-1.288l3.248-12.269h14.2a10.929 10.929 0 0 0 10.92-10.91v-1.522h9.919a1.75 1.75 0 0 0 1.75-1.75v-7.9a1.75 1.75 0 0 0 -1.75-1.752zm-4.892-1.619h.094v1.619h-.758zm-42.008 17.3h-15.308a2.8 2.8 0 1 1 0-5.591h15.308zm-17.142-13.757h17.142v4.67h-15.308a6.3 6.3 0 1 0 0 12.591h15.308v4.67h-17.142a10.977 10.977 0 0 1 -10.964-10.931c.008-.111.017-.286.022-.518a10.97 10.97 0 0 1 10.942-10.482zm-6.475 54.543h-21.273l8.063-34.234a19.12 19.12 0 0 0 6.089-4.456 14.477 14.477 0 0 0 13.6 9.574h.31zm29.151-22.393-20.97 2.705 2.2-9.428h4.406a6.921 6.921 0 0 0 5.763 6.642 1.75 1.75 0 0 0 .733-3.422 3.5 3.5 0 0 1 -2.989-3.22h7.076a1.75 1.75 0 0 0 1.75-1.75v-1.763h4.741zm27.947-21.15a7.425 7.425 0 0 1 -7.417 7.417h-22.564v-8.939h29.981zm11.669-5.019h-41.65v-4.4h41.65z" />
    </svg>