<svg width="512.019" height="512.019" xmlns="http://www.w3.org/2000/svg">

 <g>
  <title>background</title>
  <rect fill="none" id="canvas_background" height="402" width="582" y="-1" x="-1"/>
 </g>
 <g>
  <title>Layer 1</title>
  <g id="svg_1">
   <g stroke="null" id="svg_2">
    <path stroke="null" id="svg_3" d="m451.288086,299.624985l-0.361198,-4.957812c-5.803906,-75.558644 -40.985572,-122.92505 -72.022863,-164.704268c-28.739479,-38.68677 -53.561197,-72.095103 -53.561197,-121.389216c0,-3.958333 -2.216667,-7.57625 -5.731667,-9.391146c-3.525885,-1.824792 -7.762292,-1.525937 -10.967552,0.804531c-46.613332,33.356874 -85.505936,89.578071 -99.091925,143.221403c-9.431719,37.346874 -10.679583,79.331925 -10.854739,107.06104c-43.046874,-9.195208 -52.798228,-73.590363 -52.901145,-74.290988c-0.484896,-3.339844 -2.525417,-6.247239 -5.494167,-7.834531c-2.999427,-1.56651 -6.525312,-1.680312 -9.566302,-0.175156c-2.25724,1.0925 -55.40677,28.100208 -58.499218,135.944008c-0.216719,3.58724 -0.226615,7.174479 -0.226615,10.771614c0,104.762237 110.966925,201.874996 189.999996,189.999996s189.999996,-85.237759 189.999996,-189.999996c0,-5.256667 -0.360208,-10.163021 -0.721406,-15.059479zm-133.454216,161.250622c-56.151926,26.95427 -79.06078,19.694687 -149.249945,-7.915677c-73.886249,-82.328384 -75.460676,-68.838384 -75.460676,-138.273487c0,-3.164687 -0.009896,-6.318489 0.205833,-9.834479c1.813906,-63.271978 22.059791,-94.649686 35.274687,-108.492967c9.215,32.985781 33.356874,76.104894 80.630259,76.104894c5.834583,0 10.555885,-4.721302 10.555885,-10.555885c0,-35.326145 0.793646,-76.146457 10.23625,-113.524008c10.720156,-42.346249 40.08802,-88.072915 75.537863,-119.028071c5.886042,45.212082 30.511822,78.363123 56.396353,113.193487c30.770104,41.41802 62.581249,84.248175 67.910155,153.602132l0.361198,5.050833c0.329531,4.391771 0.669948,8.772656 0.669948,13.483073c-0.002969,69.435103 -56.004478,101.465935 -113.06781,146.190153z" fill="#fdfcfe"/>
    <ellipse stroke="null" ry="22.265625" rx="38.098957" id="svg_22" cy="329.473414" cx="207.582404" fill-opacity="null" stroke-opacity="null" stroke-width="null" fill="#fdfcfe"/>
    <ellipse stroke="null" transform="matrix(0.9087367496017534,-0.39175586046904654,0.39175586046904654,0.9087367496017534,-89.82386990941819,150.80515038524157) " ry="35.286493" rx="49.949274" id="svg_24" cy="297.962631" cx="323.509496" fill-opacity="null" stroke-opacity="null" stroke-width="null" fill="#fdfcfe"/>
    <rect stroke="null" transform="matrix(0.8421613873884605,-0.5196530880121335,0.5196530880121335,0.8421613873884605,-76.97355758374178,191.03831287415767) " id="svg_25" height="27" width="117" y="221.462626" x="242.509491" fill-opacity="null" stroke-opacity="null" stroke-width="null" fill="#fdfcfe"/>
    <ellipse stroke="null" transform="matrix(0.9591690630261103,-0.24345398502020138,0.24345398502020138,0.9591690630261103,-87.10181337697335,79.44592122654954) " ry="15.078111" rx="31.883967" id="svg_26" cy="395.462624" cx="277.009491" fill-opacity="null" stroke-opacity="null" stroke-width="null" fill="#fdfcfe"/>
   </g>
   <polyline stroke-linecap="round" id="svg_19" points="190.50949096679688,414.4626159667969 191.50949096679688,413.4626159667969 191.50949096679688,412.4626159667969 192.50949096679688,412.4626159667969 192.50949096679688,411.4626159667969 193.50949096679688,411.4626159667969 196.50949096679688,411.4626159667969 198.50949096679688,411.4626159667969 200.50949096679688,410.4626159667969 201.50949096679688,408.4626159667969 203.50949096679688,404.4626159667969 205.50949096679688,398.4626159667969 207.50949096679688,397.4626159667969 210.50949096679688,396.4626159667969 214.50949096679688,396.4626159667969 228.50949096679688,394.4626159667969 242.50949096679688,394.4626159667969 249.50949096679688,395.4626159667969 262.5094909667969,399.4626159667969 274.5094909667969,408.4626159667969 284.5094909667969,416.4626159667969 287.5094909667969,422.4626159667969 291.5094909667969,430.4626159667969 294.5094909667969,434.4626159667969 295.5094909667969,435.4626159667969 295.5094909667969,433.4626159667969 295.5094909667969,432.4626159667969 295.5094909667969,427.4626159667969 290.5094909667969,417.4626159667969 " opacity="0.5" fill-opacity="null" stroke-opacity="null" stroke-width="null" stroke="null" fill="none"/>
   <polyline stroke-linecap="round" id="svg_20" points="232.50949096679688,342.4626159667969 232.50949096679688,343.4626159667969 232.50949096679688,344.4626159667969 232.50949096679688,345.4626159667969 232.50949096679688,346.4626159667969 232.50949096679688,347.4626159667969 232.50949096679688,350.4626159667969 232.50949096679688,353.4626159667969 232.50949096679688,356.4626159667969 232.50949096679688,361.4626159667969 233.50949096679688,368.4626159667969 235.50949096679688,375.4626159667969 236.50949096679688,380.4626159667969 238.50949096679688,391.4626159667969 239.50949096679688,402.4626159667969 240.50949096679688,405.4626159667969 241.50949096679688,409.4626159667969 241.50949096679688,410.4626159667969 241.50949096679688,411.4626159667969 " opacity="0.5" fill-opacity="null" stroke-opacity="null" stroke-width="null" stroke="null" fill="none"/>
   <path id="svg_21" d="m228.509491,379.462626c14,1 40,-62 31,-54c-9,8 -6,-103 -7,4c-1,107 -1,86 -1,85c0,-1 56,-11 55.490509,-11.462626" opacity="0.5" fill-opacity="null" stroke-opacity="null" stroke-width="null" stroke="null" fill="#fdfcfe"/>
  </g>
  <g id="svg_4"/>
  <g id="svg_5"/>
  <g id="svg_6"/>
  <g id="svg_7"/>
  <g id="svg_8"/>
  <g id="svg_9"/>
  <g id="svg_10"/>
  <g id="svg_11"/>
  <g id="svg_12"/>
  <g id="svg_13"/>
  <g id="svg_14"/>
  <g id="svg_15"/>
  <g id="svg_16"/>
  <g id="svg_17"/>
  <g id="svg_18"/>
 </g>
</svg>