<svg height="337pt" viewBox="-17 0 337 337.71242" width="337pt" xmlns="http://www.w3.org/2000/svg">
    <path
      fill="white"  d="m52.355469 279.199219c28.707031-.03125 51.96875-23.292969 52-52v-96.25l185.929687-37.664063v158.480469c-16.785156-19.742187-45.511718-24.167969-67.460937-10.394531-21.945313 13.769531-30.457031 41.5625-19.984375 65.261718 10.46875 23.699219 36.75 36.121094 61.710937 29.164063 24.957031-6.953125 41.027344-31.175781 37.734375-56.875v-252.917969c0-7.800781-3.5-15.191406-9.539062-20.128906-6.039063-4.941406-13.976563-6.90625-21.621094-5.359375l-157.929688 31.992187c-12.105468 2.484376-20.804687 13.121094-20.835937 25.480469v136.027344c-15.410156-18.570313-41.574219-24.097656-63.175781-13.347656-21.605469 10.753906-32.972656 34.957031-27.445313 58.449219 5.523438 23.492187 26.488281 40.09375 50.621094 40.085937zm198.351562 46.238281c-21.339843.003906-38.921875-16.75-39.953125-38.0625-1.03125-21.316406 14.851563-39.6875 36.089844-41.75 21.242188-2.058594 40.359375 12.917969 43.441406 34.035156v4.933594c.003906.722656.136719 1.441406.390625 2.117188-.703125 21.570312-18.382812 38.699218-39.96875 38.726562zm-146.347656-267.445312c.015625-6.65625 4.699219-12.382813 11.21875-13.722657l157.929687-31.988281c4.117188-.835938 8.390626.222656 11.640626 2.882812 3.253906 2.660157 5.136718 6.636719 5.136718 10.839844v55.039063l-185.925781 37.664062zm-52 129.207031c22.089844 0 40 17.90625 40 40 0 22.089843-17.910156 40-40 40-22.09375 0-40-17.910157-40-40 .023437-22.082031 17.917969-39.976563 39.996094-40zm0 0" />
    </svg>