<svg height="511pt" viewBox="-17 0 511 511.84709" width="511pt" xmlns="http://www.w3.org/2000/svg"><path d="m162.128906 259.628906c5.902344-.179687 11.5-2.644531 15.625-6.871094 2.46875-3.3125 6.359375-5.265624 10.492188-5.265624 4.132812 0 8.023437 1.953124 10.492187 5.265624 1.945313 2.351563 4.996094 3.484376 8.003907 2.972657 3.003906-.511719 5.511718-2.585938 6.574218-5.445313 1.058594-2.859375.515625-6.070312-1.429687-8.417968-5.582031-7.242188-14.179688-11.523438-23.320313-11.617188-9.144531-.09375-17.828125 4.011719-23.554687 11.140625-2.542969 2.183594-3.941407.816406-4.863281-.109375-3.351563-3.234375-8.671876-3.1875-11.964844.101562-3.289063 3.292969-3.335938 8.617188-.101563 11.964844 3.625 3.925782 8.703125 6.195313 14.046875 6.28125zm0 0"/><path d="m280.148438 252.757812c2.515624-3.5 6.605468-5.527343 10.917968-5.410156 4.3125.117188 8.285156 2.363282 10.609375 6 3.980469 3.949219 9.332031 6.214844 14.9375 6.332032 5.398438-.082032 10.527344-2.371094 14.195313-6.332032 3.230468-3.347656 3.1875-8.671875-.105469-11.964844-3.292969-3.289062-8.613281-3.335937-11.960937-.101562-.925782.929688-2.335938 2.304688-4.867188.109375-5.726562-7.128906-14.410156-11.234375-23.550781-11.140625-9.144531.09375-17.742188 4.375-23.324219 11.617188-3.007812 3.632812-2.5 9.015624 1.128906 12.023437 3.632813 3.003906 9.015625 2.5 12.023438-1.132813zm0 0"/><path d="m207.773438 284.847656c-1.832032-2.4375-4.828126-3.707031-7.855469-3.335937-3.023438.367187-5.621094 2.324219-6.816407 5.132812-1.191406 2.804688-.796874 6.035157 1.039063 8.46875 11.5 12.761719 28.148437 19.644531 45.300781 18.734375 17.152344.910156 33.800782-5.972656 45.300782-18.734375 2.832031-3.765625 2.078124-9.113281-1.683594-11.949219-3.765625-2.835937-9.117188-2.082031-11.953125 1.683594-8.320313 8.386719-19.878907 12.742188-31.664063 11.933594-11.789062.808594-23.34375-3.546875-31.667968-11.933594zm0 0"/><path d="m.507812 452.113281c0 47.25 33.492188 59.734375 51.199219 59.734375h375.464844c17.710937 0 51.203125-12.484375 51.203125-59.734375 1.167969-23.5625-9.972656-46.042969-29.425781-59.386719 18.507812-10.5 29.792969-30.273437 29.425781-51.546874 0-34.816407-28.445312-54.269532-45.183594-62.714844 13.792969-13.851563 14.796875-35.917969 2.316406-50.964844-5.089843-90.164062-52.855468-131.515625-95.117187-150.433594l9.625-32.101562c.894531-2.988282.089844-6.226563-2.101563-8.445313-2.191406-2.21875-5.417968-3.066406-8.414062-2.210937l-54.390625 15.539062-39.109375-46.929687c-1.675781-1.855469-4.058594-2.917969-6.558594-2.917969-2.503906 0-4.886718 1.0625-6.558594 2.917969l-39.109374 46.933593-54.390626-15.535156c-2.996093-.855468-6.222656-.007812-8.414062 2.207032-2.1875 2.21875-2.996094 5.453124-2.101562 8.441406l9.617187 32.089844c-42.261719 18.851562-90.011719 60.160156-95.113281 150.445312-12.476563 15.042969-11.472656 37.109375 2.316406 50.960938-16.734375 8.449218-45.179688 27.902343-45.179688 62.71875-.371093 21.273437 10.917969 41.046874 29.425782 51.546874-19.457032 13.34375-30.59375 35.824219-29.425782 59.386719zm51.199219-200.53125c.019531-10.25 7.320313-19.042969 17.394531-20.9375-.191406 2.664063-.328124 5.367188-.328124 8.136719.011718 11.550781 1.832031 23.027344 5.402343 34.011719-.386719.019531-.742187.121093-1.136719.121093-11.777343-.011718-21.320312-9.554687-21.332031-21.332031zm175.386719-131.859375c-22.015625 60.570313-76.671875 103.261719-140.773438 109.957032.199219-2.039063.425782-4.0625.761719-5.984376.042969-.566406.03125-1.132812-.042969-1.699218.035157-.539063.019532-1.082032-.042968-1.621094l-.058594-.191406c22.914062-58.121094 77.753906-97.429688 140.15625-100.460938zm164.875 100.402344c-.019531.085938-.0625.164062-.082031.253906-.066407.535156-.082031 1.078125-.046875 1.621094-.074219.5625-.085938 1.132812-.042969 1.699219.335937 1.921875.5625 3.941406.761719 5.980469-64.105469-6.691407-118.765625-49.390626-140.777344-109.96875 62.59375 2.464843 117.710938 41.945312 140.1875 100.414062zm35.203125 31.457031c-.011719 11.777344-9.554687 21.320313-21.332031 21.332031-.390625 0-.75-.101562-1.136719-.121093 3.570313-10.984375 5.394531-22.460938 5.402344-34.011719 0-2.769531-.136719-5.472656-.328125-8.136719 10.074218 1.894531 17.378906 10.6875 17.394531 20.9375zm-333.890625 23.820313c-3.839844-9.109375-6.21875-18.769532-7.042969-28.621094 20.636719-2.140625 40.789063-7.625 59.667969-16.234375 42.101562-19.304687 75.464844-53.65625 93.527344-96.308594 26.960937 62.449219 85.558594 105.457031 153.214844 112.460938-.820313 9.894531-3.203126 19.597656-7.0625 28.742187-20.585938 49.53125-79.320313 82.804688-146.144532 82.804688-66.828125 0-125.558594-33.273438-146.160156-82.84375zm163.226562 99.910156v17.066406h-34.132812v-17.066406zm-41.710937 34.132812h49.289063c14.417968 3.765626 28.222656 9.582032 40.980468 17.28125-22.53125.980469-50.265625 7.4375-65.625 30.605469-15.355468-23.171875-43.09375-29.628906-65.621094-30.609375 12.757813-7.695312 26.558594-13.511718 40.976563-17.277344zm24.644531 85.335938h-111.335937c-2.976563.019531-5.742188-1.535156-7.273438-4.089844-1.59375-2.566406-1.710937-5.785156-.308593-8.460937 7.296874-14.125 17.078124-26.820313 28.878906-37.476563 22.816406-2.890625 70.507812-3.914062 81.839844 35.328125.140624.355469.304687.703125.496093 1.039063.140625.355468.304688.699218.492188 1.027344.394531.625.867187 1.191406 1.410156 1.6875.183594.207031.375.402343.574219.589843.816406.632813 1.738281 1.113281 2.726562 1.417969.050782.015625.085938.054688.132813.070312 1.546875.449219 3.1875.449219 4.734375 0 .050781-.015624.082031-.054687.136718-.070312.984376-.304688 1.90625-.785156 2.714844-1.417969.207032-.191406.40625-.390625.589844-.601562.847656-.730469 1.5-1.660157 1.894531-2.707031.1875-.332032.355469-.679688.496094-1.035157 11.332031-39.242187 59.023437-38.214843 81.839844-35.328125 11.800781 10.65625 21.582031 23.351563 28.875 37.476563 1.402343 2.675781 1.285156 5.894531-.308594 8.460937-1.527344 2.554688-4.296875 4.109375-7.273437 4.089844zm134.097656-20.351562c-5.941406-11.566407-13.359374-22.308594-22.074218-31.957032 14.589844.40625 28.691406 5.335938 40.359375 14.097656 10.921875 9.765626 17.378906 23.570313 17.878906 38.210938h-34.933594c2.445313-6.660156 2-14.035156-1.230469-20.351562zm-268.203124 0c-3.226563 6.316406-3.671876 13.691406-1.222657 20.351562h-34.9375c.5-14.621094 6.941407-28.402344 17.832031-38.167969 11.671876-8.769531 25.78125-13.699219 40.375-14.105469-8.699218 9.640626-16.109374 20.371094-22.042968 31.921876zm355.972656-133.25c0 34.972656-34.375 42.535156-35.808594 42.839843-3.988281.796875-6.859375 4.296875-6.859375 8.363281 0 4.066407 2.871094 7.570313 6.859375 8.367188 1.464844.289062 35.808594 7.664062 35.808594 51.363281 0 41.035157-30.691406 42.621094-34.136719 42.667969h-.339844c-.496093-19.71875-9.226562-38.332031-24.070312-51.316406-22.25-18.566406-53.375-19.15625-69.292969-17.992188-17.734375-14.210937-38.082031-24.804687-59.894531-31.1875v-21.8125c55.960937-9.089844 103.042969-40.097656 124.40625-83.335937 5.511719 1.214843 11.230469 1.117187 16.699219-.28125.398437.265625.820312.496093 1.261718.6875.457032.148437 45.367188 15.542969 45.367188 51.636719zm-43.921875-126.03125c-3.183594-1.027344-6.488281-1.628907-9.832031-1.789063-15.851563-38.515625-44.382813-70.460937-80.871094-90.539063l8.757812-29.234374c47.886719 22.117187 75.402344 62.921874 81.945313 121.5625zm-222.953125-147.363282c3.246094.929688 6.738281-.144531 8.898437-2.742187l36.109375-43.332031 36.105469 43.332031c2.164063 2.59375 5.652344 3.667969 8.902344 2.742187l44.742187-12.785156-18.140625 60.515625c-22.785156-9.027344-47.105469-13.535156-71.609375-13.269531-24.503906-.265625-48.828125 4.242187-71.609375 13.273437l-18.140625-60.519531zm-51 25.785156 8.765625 29.242188c-36.488281 20.078125-65.023438 52.023438-80.875 90.539062-3.339844.160157-6.640625.765626-9.824219 1.792969 6.550781-58.730469 34.054688-99.546875 81.933594-121.574219zm-90.050782 290.449219c-1.46875-.296875-35.808593-7.574219-35.808593-42.839843 0-35.90625 44.925781-51.492188 45.382812-51.640626.433594-.191406.851563-.421874 1.242188-.683593 5.46875 1.402343 11.191406 1.496093 16.703125.28125 21.386718 43.253906 68.457031 74.246093 124.40625 83.335937v21.8125c-21.8125 6.382813-42.160156 16.976563-59.894532 31.183594-15.910156-1.164062-47.03125-.582031-69.289062 17.996094-14.847656 12.984375-23.582031 31.597656-24.078125 51.316406h-.28125c-3.5-.046875-34.191406-1.632812-34.191406-42.667969 0-43.269531 34.390625-51.066406 35.808593-51.371093 3.988282-.796876 6.855469-4.300782 6.855469-8.367188s-2.867187-7.566406-6.855469-8.367188zm0 0"/></svg>